<svg width="50" height="52" viewBox="0 0 50 52" fill="none" xmlns="http://www.w3.org/2000/svg">
<path fill-rule="evenodd" clip-rule="evenodd" d="M15.0751 2.77333C15.8509 1.13707 17.5244 0 19.4584 0H30.5416C32.4756 0 34.1463 1.13707 34.9249 2.77333C36.8174 2.78997 38.2942 2.87595 39.6131 3.39179C41.1875 4.00822 42.5568 5.05582 43.5642 6.41472C44.5811 7.78475 45.0604 9.54027 45.7143 11.9558L47.7703 19.5049L48.5461 21.8372L48.6126 21.9204C51.109 25.1209 49.9204 29.8799 47.543 39.3952C46.0302 45.4494 45.2766 48.4751 43.0211 50.2389C40.7657 52 37.6486 52 31.4143 52H18.5857C12.3514 52 9.23427 52 6.97886 50.2389C4.72345 48.4751 3.96703 45.4494 2.45695 39.3952C0.0796263 29.8799 -1.10904 25.1209 1.38743 21.9204L1.45393 21.8372L2.22975 19.5049L4.28567 11.9558C4.94234 9.54027 5.42169 7.78197 6.43579 6.41195C7.4436 5.05407 8.81283 4.00746 10.3869 3.39179C11.7058 2.87595 13.1799 2.7872 15.0751 2.77333ZM15.0806 6.94165C13.2464 6.96107 12.5093 7.0304 11.8998 7.26891C11.0518 7.60082 10.3144 8.165 9.77181 8.89685C9.28415 9.55413 8.99599 10.4721 8.19246 13.4313L6.61312 19.2247C9.43931 18.72 13.3018 18.72 18.5829 18.72H31.4143C36.6982 18.72 40.5579 18.72 43.3841 19.2192L41.8075 13.4257C41.004 10.4666 40.7159 9.54859 40.2282 8.89131C39.6856 8.15945 38.9482 7.59527 38.1002 7.26336C37.4907 7.02485 36.7536 6.95552 34.9194 6.93611C34.526 7.76491 33.9059 8.4651 33.131 8.95548C32.3562 9.44585 31.4583 9.70632 30.5416 9.70667H19.4584C18.542 9.70657 17.6443 9.44651 16.8695 8.95665C16.0947 8.46678 15.4744 7.76994 15.0806 6.94165Z" fill="black"/>
</svg>
