<svg width="26" height="26" viewBox="0 0 26 26" fill="none" xmlns="http://www.w3.org/2000/svg">
<path d="M7.77448 10.2575H18.2307M7.77448 15.7425H15.2313M13.0026 25C15.6094 24.9994 18.1451 24.15 20.2262 22.5803C22.3073 21.0105 23.8207 18.8058 24.5375 16.2995C25.2542 13.7932 25.1354 11.1217 24.1989 8.68895C23.2624 6.25621 21.5592 4.19458 19.3469 2.81584C17.1346 1.43711 14.5334 0.816261 11.9369 1.04719C9.34041 1.27813 6.8897 2.34828 4.95543 4.09581C3.02117 5.84334 1.70855 8.17319 1.21609 10.733C0.723633 13.2929 1.07812 15.9434 2.22595 18.2839C2.36605 18.5693 2.41276 18.891 2.34141 19.1998L1.28281 23.787C1.25297 23.9157 1.25639 24.05 1.29276 24.177C1.32913 24.304 1.39724 24.4197 1.49068 24.5132C1.58413 24.6066 1.69982 24.6747 1.82687 24.7111C1.95392 24.7475 2.08813 24.7509 2.21687 24.7211L6.80281 23.6612C7.11244 23.5934 7.43598 23.6346 7.7187 23.7779C9.36288 24.5854 11.1709 25.0035 13.0026 25Z" stroke="white" stroke-width="2" stroke-linecap="round" stroke-linejoin="round"/>
</svg>
