<svg width="14" height="19" viewBox="0 0 14 19" fill="none" xmlns="http://www.w3.org/2000/svg">
<path d="M13.5893 4.85327V5.06421H9.08926V0.564209H9.3002C9.51114 0.564209 9.72207 0.669678 9.89786 0.845459L13.308 4.25562C13.4838 4.4314 13.5893 4.64233 13.5893 4.85327ZM8.80801 6.18921H13.5893V17.7205C13.5893 18.2126 13.2025 18.5642 12.7455 18.5642H0.933012C0.440825 18.5642 0.089262 18.2126 0.089262 17.7205V1.40796C0.089262 0.950928 0.440825 0.564209 0.933012 0.564209H7.96426V5.34546C7.96426 5.83765 8.31582 6.18921 8.80801 6.18921ZM4.02676 6.75171C3.1127 6.75171 2.33926 7.52515 2.33926 8.43921C2.33926 9.38843 3.1127 10.1267 4.02676 10.1267C4.97598 10.1267 5.71426 9.38843 5.71426 8.43921C5.71426 7.52515 4.97598 6.75171 4.02676 6.75171ZM11.3393 15.1892V11.2517L9.96817 9.88062C9.79239 9.70483 9.51114 9.70483 9.37051 9.88062L5.71426 13.5017L4.34317 12.1306C4.16739 11.9548 3.92129 11.9548 3.74551 12.0955L2.37442 13.5017L2.33926 15.1892H11.3393Z" fill="#9D9D9D"/>
</svg>
