<svg width="5" height="18" viewBox="0 0 5 18" fill="none" xmlns="http://www.w3.org/2000/svg">
<path fill-rule="evenodd" clip-rule="evenodd" d="M2.23055 3.98939C3.26558 3.98939 4.10465 3.22428 4.10465 2.28046C4.10465 1.33665 3.26558 0.571533 2.23055 0.571533C1.19551 0.571533 0.356445 1.33665 0.356445 2.28046C0.356445 3.22428 1.19551 3.98939 2.23055 3.98939Z" fill="#757575"/>
<path fill-rule="evenodd" clip-rule="evenodd" d="M2.23055 10.8251C3.26558 10.8251 4.10465 10.06 4.10465 9.11616C4.10465 8.17234 3.26558 7.40723 2.23055 7.40723C1.19551 7.40723 0.356445 8.17234 0.356445 9.11616C0.356445 10.06 1.19551 10.8251 2.23055 10.8251Z" fill="#757575"/>
<path fill-rule="evenodd" clip-rule="evenodd" d="M2.23055 17.6608C3.26558 17.6608 4.10465 16.8957 4.10465 15.9518C4.10465 15.008 3.26558 14.2429 2.23055 14.2429C1.19551 14.2429 0.356445 15.008 0.356445 15.9518C0.356445 16.8957 1.19551 17.6608 2.23055 17.6608Z" fill="#757575"/>
</svg>
