<svg width="24" height="22" viewBox="0 0 24 22" fill="none" xmlns="http://www.w3.org/2000/svg">
<path d="M0.837209 0.846179V0C0.615168 0 0.40222 0.0891507 0.245213 0.24784C0.0882058 0.40653 0 0.621759 0 0.846179H0.837209ZM13.1163 0.846179H13.9535C13.9535 0.621759 13.8653 0.40653 13.7083 0.24784C13.5513 0.0891507 13.3383 0 13.1163 0V0.846179ZM13.1163 7.61561V6.76943C12.8942 6.76943 12.6813 6.85859 12.5243 7.01728C12.3673 7.17596 12.2791 7.39119 12.2791 7.61561H13.1163ZM0.837209 1.69236H13.1163V0H0.837209V1.69236ZM12.2791 0.846179V18.898H13.9535V0.846179H12.2791ZM1.67442 16.6415V0.846179H0V16.6415H1.67442ZM13.1163 8.46179H18.6977V6.76943H13.1163V8.46179ZM22.3256 12.1286V16.6415H24V12.1286H22.3256ZM13.9535 18.898V7.61561H12.2791V18.898H13.9535ZM19.6845 19.8954C19.5549 20.0264 19.4011 20.1303 19.2317 20.2012C19.0624 20.2721 18.8809 20.3086 18.6977 20.3086C18.5144 20.3086 18.3329 20.2721 18.1636 20.2012C17.9943 20.1303 17.8405 20.0264 17.7109 19.8954L16.5276 21.0913C17.1033 21.6731 17.8841 22 18.6982 22C19.5124 22 20.2931 21.6731 20.8688 21.0913L19.6845 19.8954ZM17.7109 17.9006C17.8405 17.7696 17.9943 17.6657 18.1636 17.5948C18.3329 17.5239 18.5144 17.4874 18.6977 17.4874C18.8809 17.4874 19.0624 17.5239 19.2317 17.5948C19.4011 17.6657 19.5549 17.7696 19.6845 17.9006L20.8677 16.7047C20.292 16.1229 19.5112 15.796 18.6971 15.796C17.883 15.796 17.1022 16.1229 16.5265 16.7047L17.7109 17.9006ZM6.28912 19.8954C6.15954 20.0264 6.0057 20.1303 5.83639 20.2012C5.66707 20.2721 5.4856 20.3086 5.30233 20.3086C5.11906 20.3086 4.93758 20.2721 4.76826 20.2012C4.59895 20.1303 4.44511 20.0264 4.31554 19.8954L3.13228 21.0913C3.70797 21.6731 4.48876 22 5.30288 22C6.11701 22 6.8978 21.6731 7.47349 21.0913L6.28912 19.8954ZM4.31554 17.9006C4.44511 17.7696 4.59895 17.6657 4.76826 17.5948C4.93758 17.5239 5.11906 17.4874 5.30233 17.4874C5.4856 17.4874 5.66707 17.5239 5.83639 17.5948C6.0057 17.6657 6.15954 17.7696 6.28912 17.9006L7.47237 16.7047C6.89668 16.1229 6.1159 15.796 5.30177 15.796C4.48764 15.796 3.70685 16.1229 3.13116 16.7047L4.31554 17.9006ZM19.6845 17.9006C19.9568 18.1759 20.093 18.5358 20.093 18.898H21.7674C21.7674 18.1049 21.4672 17.3094 20.8688 16.7036L19.6845 17.9006ZM20.093 18.898C20.093 19.2602 19.9568 19.6201 19.6845 19.8954L20.8688 21.0913C21.1544 20.8037 21.3798 20.4618 21.5342 20.0854C21.6886 19.709 21.7679 19.3055 21.7674 18.898H20.093ZM16.4651 18.0518H13.1163V19.7442H16.4651V18.0518ZM17.7109 19.8954C17.5808 19.7648 17.4777 19.6093 17.4076 19.4381C17.3375 19.2669 17.3017 19.0833 17.3023 18.898H15.6279C15.6279 19.6912 15.9282 20.4866 16.5265 21.0924L17.7109 19.8954ZM17.3023 18.898C17.3023 18.5358 17.4385 18.1759 17.7109 17.9006L16.5265 16.7047C16.2409 16.9923 16.0155 17.3342 15.8611 17.7106C15.7067 18.087 15.6275 18.4905 15.6279 18.898H17.3023ZM4.31554 19.8954C4.18548 19.7648 4.08238 19.6093 4.01225 19.4381C3.94211 19.2669 3.90633 19.0833 3.90698 18.898H2.23256C2.23256 19.6912 2.53284 20.4866 3.13116 21.0924L4.31554 19.8954ZM3.90698 18.898C3.90698 18.5358 4.04316 18.1759 4.31554 17.9006L3.13228 16.7047C2.84669 16.9923 2.62018 17.3342 2.46577 17.7106C2.31137 18.087 2.23211 18.4905 2.23256 18.898H3.90698ZM13.1163 18.0518H7.53488V19.7442H13.1163V18.0518ZM6.28912 17.9006C6.56149 18.1759 6.69767 18.5358 6.69767 18.898H8.37209C8.37209 18.1049 8.07181 17.3094 7.47349 16.7036L6.28912 17.9006ZM6.69767 18.898C6.69767 19.2602 6.56149 19.6201 6.28912 19.8954L7.47237 21.0913C7.75796 20.8037 7.98447 20.4618 8.13888 20.0854C8.29329 19.709 8.37254 19.3055 8.37209 18.898H6.69767ZM22.3256 16.6415C22.3256 17.42 21.7005 18.0518 20.9302 18.0518V19.7442C21.7444 19.7442 22.5252 19.4173 23.1009 18.8354C23.6766 18.2536 24 17.4644 24 16.6415H22.3256ZM18.6977 8.46179C19.6599 8.46179 20.5826 8.84811 21.263 9.53577C21.9434 10.2234 22.3256 11.1561 22.3256 12.1286H24C24 10.7072 23.4414 9.34412 22.447 8.33909C21.4526 7.33406 20.1039 6.76943 18.6977 6.76943V8.46179ZM0 16.6415C0 17.4644 0.323421 18.2536 0.899114 18.8354C1.47481 19.4173 2.25561 19.7442 3.06977 19.7442V18.0518C2.29954 18.0518 1.67442 17.42 1.67442 16.6415H0Z" fill="white"/>
</svg>
