<svg width="24" height="24" viewBox="0 0 24 24" xmlns="http://www.w3.org/2000/svg">
<path fill-rule="evenodd" clip-rule="evenodd" d="M16.3635 8.72719C16.3635 9.8845 15.9038 10.9944 15.0854 11.8127C14.2671 12.6311 13.1572 13.0908 11.9999 13.0908C10.8426 13.0908 9.73265 12.6311 8.91431 11.8127C8.09597 10.9944 7.63623 9.8845 7.63623 8.72719C7.63623 7.56988 8.09597 6.45998 8.91431 5.64164C9.73265 4.82329 10.8426 4.36356 11.9999 4.36356C13.1572 4.36356 14.2671 4.82329 15.0854 5.64164C15.9038 6.45998 16.3635 7.56988 16.3635 8.72719ZM14.1817 8.72719C14.1817 9.30585 13.9518 9.8608 13.5426 10.27C13.1335 10.6791 12.5785 10.909 11.9999 10.909C11.4212 10.909 10.8663 10.6791 10.4571 10.27C10.0479 9.8608 9.81805 9.30585 9.81805 8.72719C9.81805 8.14854 10.0479 7.59358 10.4571 7.18441C10.8663 6.77524 11.4212 6.54537 11.9999 6.54537C12.5785 6.54537 13.1335 6.77524 13.5426 7.18441C13.9518 7.59358 14.1817 8.14854 14.1817 8.72719Z" fill="white"/>
<path fill-rule="evenodd" clip-rule="evenodd" d="M12 0C5.37273 0 0 5.37273 0 12C0 18.6273 5.37273 24 12 24C18.6273 24 24 18.6273 24 12C24 5.37273 18.6273 0 12 0ZM2.18182 12C2.18182 14.28 2.95964 16.3789 4.26327 18.0458C5.17903 16.8438 6.36017 15.8696 7.71452 15.1993C9.06886 14.5291 10.5598 14.1808 12.0709 14.1818C13.5626 14.1801 15.035 14.519 16.3758 15.1728C17.7166 15.8265 18.8904 16.7779 19.8076 17.9542C20.7529 16.7145 21.3893 15.2675 21.6642 13.733C21.9392 12.1985 21.8448 10.6206 21.3889 9.1298C20.933 7.63902 20.1286 6.27823 19.0423 5.16004C17.9561 4.04185 16.6192 3.19839 15.1422 2.69946C13.6653 2.20054 12.0908 2.06048 10.5489 2.29088C9.00711 2.52128 7.54232 3.11552 6.27575 4.02442C5.00918 4.93333 3.97725 6.13077 3.26534 7.51767C2.55343 8.90457 2.18202 10.4411 2.18182 12ZM12 21.8182C9.74608 21.8218 7.56016 21.0464 5.81236 19.6233C6.51579 18.6159 7.45221 17.7935 8.5419 17.226C9.63159 16.6584 10.8423 16.3626 12.0709 16.3636C13.2842 16.3626 14.4802 16.651 15.5596 17.2051C16.639 17.7591 17.5706 18.5627 18.2771 19.5491C16.5158 21.0185 14.2938 21.8218 12 21.8182Z" fill="white"/>
</svg>
