<svg width="26" height="26" viewBox="0 0 26 26" fill="none" xmlns="http://www.w3.org/2000/svg">
<path d="M13 3.1875C13.2683 3.1875 13.5302 3.26388 13.7559 3.40625L13.8496 3.4707L21.4336 9.1582C21.5655 9.25717 21.6787 9.37835 21.7686 9.51562L21.8506 9.6582C21.9489 9.85488 22 10.0721 22 10.292V20.583C22 20.9587 21.8506 21.3193 21.585 21.585C21.3193 21.8506 20.9587 22 20.583 22H16.3584C16.2413 22 16.1287 21.9538 16.0459 21.8711C15.9631 21.7883 15.9171 21.6756 15.917 21.5586V16.25C15.917 15.573 15.6812 14.9204 15.2559 14.4014L15.0625 14.1875C14.5155 13.6405 13.7735 13.333 13 13.333C12.2265 13.333 11.4845 13.6405 10.9375 14.1875C10.3905 14.7345 10.083 15.4765 10.083 16.25V21.5586C10.083 21.6465 10.0569 21.7317 10.0088 21.8037L9.9541 21.8711C9.87129 21.9538 9.75866 22 9.6416 22H5.41699C5.08806 22 4.77071 21.8855 4.51855 21.6787L4.41504 21.585C4.14936 21.3193 4 20.9587 4 20.583V10.292L4.00977 10.1279C4.02242 10.0192 4.04771 9.91246 4.08496 9.80957L4.14941 9.6582C4.22319 9.51065 4.32238 9.37767 4.44141 9.26465L4.56641 9.1582L12.1504 3.4707C12.3956 3.28694 12.6936 3.1875 13 3.1875Z" stroke="#FEFEFE" stroke-width="1.5"/>
</svg>
