<svg width="28" height="28" viewBox="0 0 28 28" fill="none" xmlns="http://www.w3.org/2000/svg">
<g clip-path="url(#clip0_227_586)">
<path d="M14 13.6243V26.1902L13.125 26.6095L1.75 21.1717V7.54446L13.125 2.09357L24.5 7.54446V17.2932H22.75V9.43131L14 13.6243ZM13.125 3.98041L9.83008 5.55279L18.3203 9.66716L21.6699 8.06858L13.125 3.98041ZM12.25 24.3164V13.6243L3.5 9.43131V20.1234L12.25 24.3164ZM4.58008 8.06858L13.125 12.1568L16.3789 10.6106L7.875 6.49621L4.58008 8.06858ZM19.25 24.002V22.3248H28V24.002H19.25ZM19.25 18.9704H28V20.6476H19.25V18.9704ZM15.75 27.3564V25.6792H17.5V27.3564H15.75ZM15.75 20.6476V18.9704H17.5V20.6476H15.75ZM15.75 24.002V22.3248H17.5V24.002H15.75ZM19.25 27.3564V25.6792H28V27.3564H19.25Z" fill="blue"/>
</g>
<defs>
<clipPath id="clip0_227_586">
<rect width="28" height="26.8352" fill="white" transform="translate(0 0.521179)"/>
</clipPath>
</defs>
</svg>
